<svg xmlns="http://www.w3.org/2000/svg" xmlns:xlink="http://www.w3.org/1999/xlink" id="Group_866" data-name="Group 866" viewBox="0 0 250.625 159.101"><defs><style>.cls-1{fill:#003c77}.cls-2{fill:#282828}.cls-3{fill:url(#linear-gradient)}.cls-4{fill:url(#linear-gradient-2)}.cls-5{fill:url(#linear-gradient-3)}.cls-6{fill:url(#linear-gradient-4)}.cls-7{fill:url(#linear-gradient-5)}.cls-8{fill:url(#linear-gradient-6)}.cls-9{fill:url(#linear-gradient-7)}.cls-10{fill:#4ebde5}.cls-11{fill:#0063a6}</style><linearGradient id="linear-gradient" x1=".499" x2=".499" y1="1.327" y2=".161" gradientUnits="objectBoundingBox"><stop offset="0" stop-color="#231f20"/><stop offset="1" stop-color="#231f20" stop-opacity="0"/></linearGradient><linearGradient id="linear-gradient-2" x1=".978" x2=".978" y1="-1.624" y2="-2.627" xlink:href="#linear-gradient"/><linearGradient id="linear-gradient-3" x1="-943.967" x2="-943.967" y1="103.107" y2="102.107" xlink:href="#linear-gradient"/><linearGradient id="linear-gradient-4" x1="-957.918" x2="-957.918" y1="104.31" y2="103.31" xlink:href="#linear-gradient"/><linearGradient id="linear-gradient-5" x1=".501" x2=".501" y1="1.001" y2=".001" xlink:href="#linear-gradient"/><linearGradient id="linear-gradient-6" x1=".501" x2=".501" y1="1" y2="-.003" xlink:href="#linear-gradient"/><linearGradient id="linear-gradient-7" x1="-104.128" x2="-104.128" y1="-1.624" y2="-2.627" xlink:href="#linear-gradient"/></defs><g id="Group_864" data-name="Group 864" transform="translate(0 118.992)"><g id="Group_850" data-name="Group 850" transform="translate(0 10.867)"><path id="Path_817" d="M9.228 337.887a9.228 9.228 0 1 1 9.228-9.228 9.237 9.237 0 0 1-9.228 9.228zm0-16.611a7.383 7.383 0 1 0 7.383 7.383 7.393 7.393 0 0 0-7.383-7.383z" class="cls-1" data-name="Path 817" transform="translate(0 -319.43)"/></g><path id="Path_818" d="M432.683 335.147a7.38 7.38 0 1 1 0-12.981 9.239 9.239 0 0 1 1.516-1.236 9.225 9.225 0 1 0 0 15.46 9.563 9.563 0 0 1-1.516-1.243z" class="cls-2" data-name="Path 818" transform="translate(-249.226 -308.563)"/><g id="Group_851" data-name="Group 851" transform="translate(86.884)"><path id="Rectangle_584" d="M0 0h1.846v29.319H0z" class="cls-2" data-name="Rectangle 584"/></g><path id="Path_819" d="M163.786 319.43v3.675a9.169 9.169 0 0 0-1.846 5.529v-9.2z" class="cls-1" data-name="Path 819" transform="translate(-96.106 -308.563)"/><path id="Path_820" d="M161.94 319.43h1.846v11.1h-1.846z" class="cls-3" data-name="Path 820" transform="translate(-96.106 -308.563)"/><path id="Path_821" d="M180.4 328.634v9.253h-1.846v-9.253a7.207 7.207 0 0 0-.037-.728 7.385 7.385 0 0 0-14.692 0 7.211 7.211 0 0 0-.037.728v9.354h-1.848v-9.354a9.169 9.169 0 0 1 1.846-5.529v.024a9.224 9.224 0 0 1 16.562 4.586 8.582 8.582 0 0 1 .052.919z" class="cls-1" data-name="Path 821" transform="translate(-96.106 -308.563)"/><path id="Path_822" d="M243.557 328.658a9.24 9.24 0 1 0-1.846 5.529v3.7h1.846v-9.021c-.004-.074 0-.139 0-.208zm-9.228 7.383a7.383 7.383 0 1 1 7.383-7.383 7.393 7.393 0 0 1-7.384 7.383z" class="cls-2" data-name="Path 822" transform="translate(-133.589 -308.563)"/><path id="Rectangle_585" d="M0 0h1.846v8.993H0z" class="cls-4" data-name="Rectangle 585" transform="translate(108.122 20.339)"/><path id="Path_823" d="M123.874 331.319a7.8 7.8 0 0 1-6.956 4.712 7.39 7.39 0 0 1-7.334-6.561h16.526c.024-.272.037-.545.037-.821a9.228 9.228 0 1 0-9.228 9.228 9.488 9.488 0 0 0 8.814-6.557zm-6.956-10.05a7.389 7.389 0 0 1 7.309 6.358h-14.618a7.392 7.392 0 0 1 7.309-6.357z" class="cls-1" data-name="Path 823" transform="translate(-63.91 -308.557)"/><path id="Path_824" d="M587.274 331.319a7.8 7.8 0 0 1-6.956 4.712 7.39 7.39 0 0 1-7.334-6.561h16.526c.024-.272.037-.545.037-.821a9.228 9.228 0 1 0-9.228 9.228 9.488 9.488 0 0 0 8.814-6.557zm-6.956-10.05a7.389 7.389 0 0 1 7.309 6.358h-14.618a7.393 7.393 0 0 1 7.309-6.357z" class="cls-2" data-name="Path 824" transform="translate(-338.923 -308.557)"/><path id="Path_825" d="M396.3 329.469a5.964 5.964 0 0 0-2.659-1.911l-2.468-1.012a3.575 3.575 0 0 1-1.569-1.09 2.666 2.666 0 0 1-.541-1.691 2.84 2.84 0 0 1 1.02-2.232 3.525 3.525 0 0 1 2.407-.911 8.881 8.881 0 0 1 2.516.683c.4.15.955.37 1.634.659l.285.118v-1.838l-.13-.049a20.276 20.276 0 0 0-1.59-.541 9.938 9.938 0 0 0-2.679-.545 5.255 5.255 0 0 0-3.708 1.317 4.423 4.423 0 0 0-1.423 3.37 4.324 4.324 0 0 0 2.968 4.358l2.59 1.041a5.03 5.03 0 0 1 1.927 1.289 2.775 2.775 0 0 1 .691 1.9 3.682 3.682 0 0 1-1.02 2.606 3.364 3.364 0 0 1-2.577 1.073 6.642 6.642 0 0 1-2.732-.768 5.087 5.087 0 0 1-1.48-.858l-.362-.463v2.106l.077.061a8.692 8.692 0 0 0 2.407 1.171 7.317 7.317 0 0 0 2.378.455 4.679 4.679 0 0 0 3.618-1.549 5.4 5.4 0 0 0 1.4-3.736 4.877 4.877 0 0 0-.98-3.013z" class="cls-2" data-name="Path 825" transform="translate(-229.909 -308.373)"/><g id="Group_854" data-name="Group 854" transform="translate(21.839 10.867)"><path id="Rectangle_586" d="M0 0h1.846v20.042H0z" class="cls-1" data-name="Rectangle 586" transform="translate(0 9.2)"/><path id="Rectangle_587" d="M0 0h1.846v11.102H0z" class="cls-5" data-name="Rectangle 587" transform="translate(0 9.228)"/><g id="Group_853" data-name="Group 853"><g id="Group_852" data-name="Group 852"><path id="Path_826" d="M62.948 337.887a9.228 9.228 0 1 1 9.228-9.228 9.237 9.237 0 0 1-9.228 9.228zm0-16.611a7.383 7.383 0 1 0 7.383 7.383 7.393 7.393 0 0 0-7.383-7.383z" class="cls-1" data-name="Path 826" transform="translate(-53.72 -319.43)"/></g></g></g><g id="Group_857" data-name="Group 857" transform="translate(210.328 10.867)"><path id="Rectangle_588" d="M0 0h1.846v20.042H0z" class="cls-2" data-name="Rectangle 588" transform="translate(.004 9.2)"/><path id="Rectangle_589" d="M0 0h1.846v11.102H0z" class="cls-6" data-name="Rectangle 589" transform="translate(.004 9.054)"/><g id="Group_856" data-name="Group 856"><g id="Group_855" data-name="Group 855"><path id="Path_827" d="M526.6 337.887a9.228 9.228 0 1 1 9.228-9.228 9.237 9.237 0 0 1-9.228 9.228zm0-16.611a7.383 7.383 0 1 0 7.383 7.383 7.393 7.393 0 0 0-7.383-7.383z" class="cls-2" data-name="Path 827" transform="translate(-517.37 -319.43)"/></g></g></g><g id="Group_860" data-name="Group 860" transform="translate(135.526 .038)"><path id="Rectangle_590" d="M0 0h1.846v20.042H0z" class="cls-2" data-name="Rectangle 590" transform="rotate(180 9.23 10.021)"/><path id="Path_828" d="M374.23 314.78h1.846v11.106h-1.846z" class="cls-7" data-name="Path 828" transform="translate(-357.619 -305.841)"/><g id="Group_859" data-name="Group 859" transform="translate(0 10.788)"><g id="Group_858" data-name="Group 858"><path id="Path_829" d="M342.6 319.33a9.228 9.228 0 1 1-9.228 9.228 9.237 9.237 0 0 1 9.228-9.228zm0 16.611a7.383 7.383 0 1 0-7.383-7.383 7.393 7.393 0 0 0 7.383 7.383z" class="cls-2" data-name="Path 829" transform="translate(-333.37 -319.33)"/></g></g></g><g id="Group_861" data-name="Group 861" transform="translate(113.289 10.777)"><path id="Path_830" d="M280.516 319.21v3.675a9.169 9.169 0 0 0-1.846 5.529v-9.2h1.846z" class="cls-2" data-name="Path 830" transform="translate(-278.67 -319.21)"/><path id="Path_831" d="M278.67 319.21h1.846v11.1h-1.846z" class="cls-8" data-name="Path 831" transform="translate(-278.67 -319.21)"/><path id="Path_832" d="M297.127 328.414v9.354h-1.846v-9.354a7.211 7.211 0 0 0-.037-.728 7.385 7.385 0 0 0-14.692 0 7.211 7.211 0 0 0-.037.728v9.354h-1.845v-9.354a9.169 9.169 0 0 1 1.846-5.529v.024a9.224 9.224 0 0 1 16.562 4.586 8.578 8.578 0 0 1 .049.919z" class="cls-2" data-name="Path 832" transform="translate(-278.67 -319.21)"/></g><g id="Group_862" data-name="Group 862" transform="translate(91.511 10.915)"><path id="Path_833" d="M234.357 338.007a9.228 9.228 0 1 1 9.2-9.257 9.24 9.24 0 0 1-9.2 9.257zm-.049-16.611a7.383 7.383 0 1 0 7.4 7.362 7.393 7.393 0 0 0-7.4-7.358z" class="cls-2" data-name="Path 833" transform="translate(-225.1 -319.55)"/></g><path id="Path_834" d="M482.147 328.658a9.241 9.241 0 1 0-1.846 5.529v3.7h1.846v-9.021-.208zm-9.224 7.383a7.383 7.383 0 1 1 7.383-7.383 7.393 7.393 0 0 1-7.384 7.383z" class="cls-2" data-name="Path 834" transform="translate(-275.184 -308.563)"/><path id="Rectangle_591" d="M0 0h1.846v8.993H0z" class="cls-9" data-name="Rectangle 591" transform="translate(205.117 20.339)"/><g id="Group_863" data-name="Group 863" transform="translate(188.506 10.915)"><path id="Path_835" d="M472.947 338.007a9.228 9.228 0 1 1 9.2-9.257 9.24 9.24 0 0 1-9.2 9.257zM472.9 321.4a7.383 7.383 0 1 0 7.4 7.362 7.393 7.393 0 0 0-7.4-7.362z" class="cls-2" data-name="Path 835" transform="translate(-463.69 -319.55)"/></g></g><g id="Group_865" data-name="Group 865" transform="translate(40.389)"><path id="Path_836" d="M426.933 110.56a31.618 31.618 0 0 0-6.338.646 59.68 59.68 0 0 0 17.078 60.537c.268-.1.537-.2.8-.3a31.533 31.533 0 0 0-11.541-60.878z" class="cls-10" data-name="Path 836" transform="translate(-288.618 -65.614)"/><path id="Path_837" d="M303.092 106.931c-8.936-7.643-23.551-27.652-19.827-53.744a44.907 44.907 0 1 0-88.335-16.245c4.988.728 21.774 4.8 30.3 27.124 7.606 19.9 29.031 36.446 52.821 42.117h-.008c.065.016.126.028.191.045a.258.258 0 0 0 .028.008 66.348 66.348 0 0 0 10.33 1.707c.228.02.455.049.683.069h.244c8.675.577 13.566-1.053 13.566-1.053h-.069a.514.514 0 0 1 .076-.028z" class="cls-1" data-name="Path 837" transform="translate(-156.074)"/><path id="Path_838" d="M164.749 121.632v.008a33.751 33.751 0 1 0-31.649 45.491h87.641c.451 0 .915.02 1.378 0-5.232 0-41.119-6.277-57.37-45.499z" class="cls-11" data-name="Path 838" transform="translate(-99.35 -59.127)"/></g></svg>